<svg aria-hidden="true" style="position: absolute; width: 0; height: 0; overflow: hidden;" version="1.1" xmlns="http://www.w3.org/2000/svg" xmlns:xlink="http://www.w3.org/1999/xlink">
    <defs>
        <symbol id="icon-heart-pressed" viewBox="0 0 32 32">
            <path fill="#e44848" style="fill: var(--color1, #e44848)" d="M16 13.139l-1.788-3.577c-0.444-0.887-1.213-2.16-2.304-3.191-1.072-1.013-2.356-1.704-3.908-1.704-3.352 0-6 2.652-6 5.84 0 2.423 1.108 4.132 3.736 6.74 0.718 0.705 1.465 1.418 2.221 2.121l0.071 0.065c2.216 2.080 4.972 4.667 7.972 8.128 3-3.46 5.756-6.048 7.972-8.128 0.827-0.769 1.574-1.482 2.31-2.205l-0.018 0.018c2.628-2.608 3.736-4.317 3.736-6.74 0-3.188-2.648-5.84-6-5.84-1.555 0-2.836 0.691-3.908 1.704-1.091 1.031-1.86 2.304-2.304 3.191zM16.784 29.723c-0.19 0.223-0.47 0.364-0.784 0.364s-0.594-0.141-0.783-0.362l-0.001-0.001c-3.203-3.804-6.1-6.524-8.487-8.763-4.129-3.876-6.729-6.315-6.729-10.453 0-4.329 3.58-7.84 8-7.84 3.2 0 5.439 2.1 6.808 4.016 0.52 0.731 0.916 1.432 1.192 1.984q0.52-1.037 1.192-1.984c1.369-1.917 3.608-4.016 6.808-4.016 4.42 0 8 3.511 8 7.84 0 4.137-2.6 6.576-6.729 10.453-2.387 2.24-5.284 4.963-8.487 8.763z"></path>
        </symbol>
        <symbol id="icon-radio" viewBox="0 0 32 32">
            <path d="M14 5c0-0.552 0.448-1 1-1v0h14c0.552 0 1 0.448 1 1v0 2c0 0.552-0.448 1-1 1v0h-14c-0.552 0-1-0.448-1-1v0zM0 24c0-3.314 2.686-6 6-6s6 2.686 6 6v0c0 3.314-2.686 6-6 6s-6-2.686-6-6v0zM14 21c0-0.552 0.448-1 1-1v0h14c0 0 0.001 0 0.002 0 0.551 0 0.998 0.447 0.998 0.998 0 0.001 0 0.001 0 0.002v-0 2c0 0 0 0.001 0 0.002 0 0.551-0.447 0.998-0.998 0.998-0.001 0-0.001 0-0.002 0h-14c-0.552 0-1-0.448-1-1v0zM14 11c0-0.552 0.448-1 1-1v0h10c0.552 0 1 0.448 1 1s-0.448 1-1 1v0h-10c-0.552 0-1-0.448-1-1v0zM14 27c0-0.552 0.448-1 1-1v0h10c0.552 0 1 0.448 1 1s-0.448 1-1 1v0h-10c-0.552 0-1-0.448-1-1v0zM6 2c-3.314 0-6 2.686-6 6s2.686 6 6 6v0c3.314 0 6-2.686 6-6s-2.686-6-6-6v0zM6 11c-1.657 0-3-1.343-3-3s1.343-3 3-3v0c1.657 0 3 1.343 3 3s-1.343 3-3 3v0z"></path>
        </symbol>
        <symbol id="icon-engine" viewBox="0 0 32 32">
            <path d="M6 5c0-0.552 0.448-1 1-1v0h10c0.552 0 1 0.448 1 1v0 10c0 0.552-0.448 1-1 1v0h-10c-0.552 0-1-0.448-1-1v0z"></path>
            <path d="M2 4c0-2.209 1.791-4 4-4v0h12c2.209 0 4 1.791 4 4v0 16c2.209 0 4 1.791 4 4v0 1c0 0.552 0.448 1 1 1s1-0.448 1-1v0-9h-1c-0.552 0-1-0.448-1-1v0-6.25c0-0.552 0.448-1 1-1v0h2.99c-0.022-0.952-0.107-1.789-0.403-2.445-0.162-0.387-0.435-0.701-0.779-0.91l-0.009-0.005c-0.368-0.221-0.928-0.39-1.8-0.39-0.552 0-1-0.448-1-1s0.448-1 1-1v0q1.691-0.005 2.824 0.672c0.766 0.456 1.269 1.102 1.587 1.814 0.592 1.31 0.589 2.93 0.589 4.162v6.35c0 0 0 0.001 0 0.002 0 0.552-0.448 1-1 1h-1v9c0 1.657-1.343 3-3 3s-3-1.343-3-3v0-1c0-1.105-0.895-2-2-2v0 8h1c0.552 0 1 0.448 1 1s-0.448 1-1 1v0h-22c-0.552 0-1-0.448-1-1s0.448-1 1-1v0h1zM20 4c0-1.105-0.895-2-2-2v0h-12c-1.105 0-2 0.895-2 2v0 26h16z"></path>
        </symbol>
        <symbol id="icon-tv" viewBox="0 0 32 32">
            <path d="M0 8s0-4 4-4h24s4 0 4 4v12s0 4-4 4h-8q0 2 0.5 3h1.5c0.552 0 1 0.448 1 1s-0.448 1-1 1v0h-12c-0.552 0-1-0.448-1-1s0.448-1 1-1v0h1.5q0.5-1 0.5-3h-8s-4 0-4-4zM2.796 6.29c-0.219 0.153-0.392 0.357-0.504 0.595l-0.004 0.009c-0.161 0.329-0.264 0.713-0.288 1.118l-0 0.008v11.98c0 0.65 0.156 1.004 0.29 1.204q0.21 0.312 0.604 0.508c0.338 0.162 0.703 0.259 1.076 0.286l0.050 0.002h23.98c0.65 0 1.004-0.156 1.204-0.29 0.219-0.153 0.392-0.357 0.504-0.595l0.004-0.009c0.162-0.338 0.259-0.703 0.286-1.076l0.002-0.050v-11.98c0-0.65-0.156-1.004-0.29-1.204-0.153-0.219-0.357-0.392-0.595-0.504l-0.009-0.004c-0.329-0.161-0.713-0.264-1.118-0.288l-0.008-0h-23.98c-0.65 0-1.004 0.156-1.204 0.29z"></path>
        </symbol>
        <symbol id="icon-bathroom" viewBox="0 0 32 32">
            <path d="M8 29.5c0 0.828-0.672 1.5-1.5 1.5s-1.5-0.672-1.5-1.5v0c0-0.828 0.672-1.5 1.5-1.5s1.5 0.672 1.5 1.5v0zM10.5 24c-0.828 0-1.5 0.672-1.5 1.5s0.672 1.5 1.5 1.5v0c0.828 0 1.5-0.672 1.5-1.5s-0.672-1.5-1.5-1.5v0zM2.5 24c-0.828 0-1.5 0.672-1.5 1.5s0.672 1.5 1.5 1.5v0c0.828 0 1.5-0.672 1.5-1.5s-0.672-1.5-1.5-1.5v0zM6.5 20c-0.828 0-1.5 0.672-1.5 1.5s0.672 1.5 1.5 1.5v0c0.828 0 1.5-0.672 1.5-1.5s-0.672-1.5-1.5-1.5v0zM32 5c0 0.552-0.448 1-1 1v0h-3.586l-3.482 3.483-2.707 15.848c-0.165 0.953-0.985 1.668-1.972 1.668-0.552 0-1.052-0.224-1.414-0.585l-12.25-12.25c-0.362-0.362-0.587-0.862-0.587-1.415 0-0.989 0.718-1.81 1.661-1.971l0.012-0.002 15.842-2.708 3.776-3.775c0.181-0.181 0.431-0.293 0.707-0.293h4c0.552 0 1 0.448 1 1v0zM21.776 10.224l-14.776 2.526 12.25 12.25z"></path>
        </symbol>
        <symbol id="icon-map" viewBox="0 0 32 32">
            <path d="M31.634 0.226c0.224 0.185 0.366 0.463 0.366 0.773 0 0 0 0 0 0.001v-0 28c-0 0.483-0.343 0.885-0.798 0.979l-0.006 0.001-10 2c-0.059 0.012-0.127 0.019-0.196 0.019s-0.137-0.007-0.202-0.020l0.006 0.001-9.804-1.96-9.804 1.96c-0.059 0.012-0.127 0.019-0.196 0.019-0.552 0-1-0.447-1-0.999v-28c0-0.483 0.343-0.885 0.798-0.979l0.006-0.001 10-2c0.059-0.012 0.127-0.019 0.196-0.019s0.137 0.007 0.202 0.021l-0.006-0.001 9.804 1.96 9.804-1.96c0.059-0.013 0.127-0.020 0.197-0.020 0.241 0 0.462 0.085 0.634 0.227l-0.002-0.001zM20 3.82l-8-1.6v25.96l8 1.6zM22 29.78l8-1.6v-25.96l-8 1.6zM10 28.18v-25.96l-8 1.6v25.96z"></path>
        </symbol>
        <symbol id="icon-star-filled" viewBox="0 0 32 32">
            <path fill="#ffc531" style="fill: var(--color2, #ffc531)" d="M15.116 1.676c0.171-0.319 0.503-0.532 0.884-0.532s0.713 0.213 0.881 0.527l0.003 0.005 3.778 7.158c0.144 0.27 0.401 0.464 0.706 0.519l0.006 0.001 7.976 1.38c0.473 0.085 0.827 0.494 0.827 0.985 0 0.27-0.107 0.515-0.281 0.695l0-0-5.64 5.804c-0.176 0.18-0.284 0.426-0.284 0.698 0 0.050 0.004 0.099 0.011 0.147l-0.001-0.005 1.152 8.010c0.006 0.043 0.010 0.092 0.010 0.142 0 0.552-0.448 1-1 1-0.16 0-0.312-0.038-0.446-0.105l0.006 0.003-7.264-3.572c-0.129-0.065-0.281-0.103-0.442-0.103s-0.313 0.038-0.448 0.106l0.006-0.003-7.26 3.572c-0.129 0.065-0.281 0.103-0.442 0.103-0.552 0-1-0.448-1-1 0-0.050 0.004-0.1 0.011-0.149l-0.001 0.005 1.152-8.010c0.006-0.043 0.010-0.092 0.010-0.142 0-0.272-0.108-0.518-0.284-0.698l-5.64-5.804c-0.174-0.18-0.281-0.425-0.281-0.695 0-0.491 0.354-0.9 0.821-0.984l0.006-0.001 7.976-1.38c0.312-0.056 0.57-0.249 0.711-0.515l0.003-0.005z"></path>
        </symbol>
        <symbol id="icon-star-empty" viewBox="0 0 32 32">
            <path fill="#f2f4f7" style="fill: var(--color3, #f2f4f7)" d="M15.116 1.676c0.171-0.319 0.503-0.532 0.884-0.532s0.713 0.213 0.881 0.527l0.003 0.005 3.778 7.158c0.144 0.27 0.401 0.464 0.706 0.519l0.006 0.001 7.976 1.38c0.473 0.085 0.827 0.494 0.827 0.985 0 0.27-0.107 0.515-0.281 0.695l0-0-5.64 5.804c-0.176 0.18-0.284 0.426-0.284 0.698 0 0.050 0.004 0.099 0.011 0.147l-0.001-0.005 1.152 8.010c0.006 0.043 0.010 0.092 0.010 0.142 0 0.552-0.448 1-1 1-0.16 0-0.312-0.038-0.446-0.105l0.006 0.003-7.264-3.572c-0.129-0.065-0.281-0.103-0.442-0.103s-0.313 0.038-0.448 0.106l0.006-0.003-7.26 3.572c-0.129 0.065-0.281 0.103-0.442 0.103-0.552 0-1-0.448-1-1 0-0.050 0.004-0.1 0.011-0.149l-0.001 0.005 1.152-8.010c0.006-0.043 0.010-0.092 0.010-0.142 0-0.272-0.108-0.518-0.284-0.698l-5.64-5.804c-0.174-0.18-0.281-0.425-0.281-0.695 0-0.491 0.354-0.9 0.821-0.984l0.006-0.001 7.976-1.38c0.312-0.056 0.57-0.249 0.711-0.515l0.003-0.005z"></path>
        </symbol>
        <symbol id="icon-heart" viewBox="0 0 32 32">
            <path d="M16 13.139l-1.788-3.577c-0.444-0.887-1.213-2.16-2.304-3.191-1.072-1.013-2.356-1.704-3.908-1.704-3.352 0-6 2.652-6 5.84 0 2.423 1.108 4.132 3.736 6.74 0.718 0.705 1.465 1.418 2.221 2.121l0.071 0.065c2.216 2.080 4.972 4.667 7.972 8.128 3-3.46 5.756-6.048 7.972-8.128 0.827-0.769 1.574-1.482 2.31-2.205l-0.018 0.018c2.628-2.608 3.736-4.317 3.736-6.74 0-3.188-2.648-5.84-6-5.84-1.555 0-2.836 0.691-3.908 1.704-1.091 1.031-1.86 2.304-2.304 3.191zM16.784 29.723c-0.19 0.223-0.47 0.364-0.784 0.364s-0.594-0.141-0.783-0.362l-0.001-0.001c-3.203-3.804-6.1-6.524-8.487-8.763-4.129-3.876-6.729-6.315-6.729-10.453 0-4.329 3.58-7.84 8-7.84 3.2 0 5.439 2.1 6.808 4.016 0.52 0.731 0.916 1.432 1.192 1.984q0.52-1.037 1.192-1.984c1.369-1.917 3.608-4.016 6.808-4.016 4.42 0 8 3.511 8 7.84 0 4.137-2.6 6.576-6.729 10.453-2.387 2.24-5.284 4.963-8.487 8.763z"></path>
        </symbol>
        <symbol id="icon-water" viewBox="0 0 32 32">
            <path fill="none" stroke="currentColor" stroke-linejoin="miter" stroke-linecap="butt" stroke-miterlimit="10" stroke-width="2" d="M25 20c0 5.523-3.477 9-9 9s-9-3.477-9-9c0-5.927 6.452-13.928 8.43-16.243 0.138-0.161 0.342-0.263 0.57-0.263s0.432 0.101 0.569 0.262l0.001 0.001c1.978 2.315 8.43 10.316 8.43 16.243z"></path>
            <path fill="none" stroke="currentColor" stroke-linejoin="round" stroke-linecap="round" stroke-miterlimit="4" stroke-width="2" d="M21.5 20.5c0 2.485-2.015 4.5-4.5 4.5v0"></path>
        </symbol>
        <symbol id="icon-gas" viewBox="0 0 32 32">
            <path fill="none" stroke="currentColor" stroke-linejoin="round" stroke-linecap="round" stroke-miterlimit="4" stroke-width="2.4" d="M8 25.333h5.333M24 25.345v-0.012M2.667 8c0-4.413 0.92-5.333 5.333-5.333h16c4.413 0 5.333 0.92 5.333 5.333v16c0 4.413-0.92 5.333-5.333 5.333h-16c-4.413 0-5.333-0.92-5.333-5.333z"></path>
            <path fill="none" stroke="currentColor" stroke-linejoin="round" stroke-linecap="round" stroke-miterlimit="4" stroke-width="2.4" d="M16 18.667c2.946 0 5.334-2.388 5.334-5.334s-2.388-5.334-5.334-5.334v0c-2.946 0-5.334 2.388-5.334 5.334s2.388 5.334 5.334 5.334v0M20.667 13.333h2M16 18v2M11.333 13.333h-2M16 8.667v-2"></path>
        </symbol>
        <symbol id="icon-microwave" viewBox="0 0 32 32">
            <path fill="none" stroke="currentColor" stroke-linejoin="round" stroke-linecap="round" stroke-miterlimit="4" stroke-width="2" d="M26.667 5.333h-21.334c-1.473 0.001-2.666 1.194-2.666 2.667v0 14.667c0.001 1.472 1.194 2.665 2.666 2.666h21.334c1.472-0.001 2.665-1.194 2.666-2.666v-14.667c0-1.473-1.194-2.666-2.666-2.667h-0"></path>
            <path fill="none" stroke="currentColor" stroke-linejoin="round" stroke-linecap="round" stroke-miterlimit="4" stroke-width="2" d="M17.333 10.667h-8c-0.736 0-1.333 0.597-1.333 1.333v6.667c0 0.736 0.597 1.333 1.333 1.333h8c0.737 0 1.334-0.597 1.334-1.333v-6.667c0-0.736-0.597-1.333-1.334-1.333M24 10.667v9.333M8 25.333v2.667M24 25.333v2.667"></path>
        </symbol>
        <symbol id="icon-refrigerator" viewBox="0 0 32 32">
            <path d="M23.667 9.333c0-0.552-0.448-1-1-1s-1 0.448-1 1v0 2.667c0 0.552 0.448 1 1 1s1-0.448 1-1v0zM23.667 18.667c0-0.552-0.448-1-1-1s-1 0.448-1 1v0 2.666c0 0.552 0.448 1 1 1s1-0.448 1-1v0z"></path>
            <path d="M16.075 1.667h-0.15c-2.45 0-4.392 0-5.91 0.204-1.563 0.21-2.828 0.653-3.827 1.65-0.997 0.999-1.44 2.264-1.65 3.827-0.205 1.52-0.205 3.46-0.205 5.91v4.15c0 2.45 0 4.392 0.204 5.91 0.211 1.563 0.654 2.829 1.651 3.827 0.613 0.612 1.325 1.015 2.145 1.284v0.904c0 0.552 0.448 1 1 1v0h1.334c0.552 0 1-0.448 1-1v0-0.394c1.209 0.061 2.62 0.061 4.258 0.061h0.15c1.64 0 3.049 0 4.258-0.061v0.394c0 0.552 0.448 1 1 1v0h1.334c0.552 0 1-0.448 1-1v0-0.904c0.82-0.269 1.533-0.672 2.145-1.284 0.997-0.998 1.44-2.264 1.65-3.826 0.205-1.52 0.205-3.46 0.205-5.911v-4.148c0-2.45 0-4.392-0.204-5.91-0.211-1.563-0.654-2.829-1.651-3.827-0.999-0.998-2.264-1.44-3.827-1.651-1.52-0.204-3.46-0.204-5.91-0.204zM7.603 4.936c0.564-0.564 1.337-0.903 2.678-1.083 1.371-0.184 3.176-0.186 5.719-0.186s4.35 0.002 5.72 0.186c1.34 0.18 2.113 0.519 2.677 1.083s0.903 1.337 1.083 2.679c0.184 1.37 0.187 3.176 0.187 5.718v1h-19.334v-1c0-2.542 0.003-4.348 0.187-5.72 0.18-1.34 0.519-2.113 1.083-2.677zM6.333 16.333h19.334v1c0 2.543-0.003 4.35-0.187 5.72-0.18 1.34-0.519 2.114-1.083 2.678s-1.337 0.902-2.678 1.082c-1.371 0.184-3.176 0.187-5.719 0.187s-4.348-0.003-5.72-0.187c-1.34-0.18-2.113-0.518-2.677-1.082s-0.903-1.338-1.083-2.679c-0.184-1.37-0.187-3.176-0.187-5.719z"></path>
        </symbol>
        <symbol id="icon-alcove" viewBox="0 0 32 32">
            <path d="M8 4v4h-4v-4zM10 28v-4c0-1.105-0.895-2-2-2v0h-4c-1.105 0-2 0.895-2 2v0 4c0 1.105 0.895 2 2 2v0h4c1.105 0 2-0.895 2-2v0zM10 18v-4c0-1.105-0.895-2-2-2v0h-4c-1.105 0-2 0.895-2 2v0 4c0 1.105 0.895 2 2 2v0h4c1.105 0 2-0.895 2-2v0zM10 8v-4c0-1.105-0.895-2-2-2v0h-4c-1.105 0-2 0.895-2 2v0 4c0 1.105 0.895 2 2 2v0h4c1.105 0 2-0.895 2-2v0zM20 28v-4c0-1.105-0.895-2-2-2v0h-4c-1.105 0-2 0.895-2 2v0 4c0 1.105 0.895 2 2 2v0h4c1.105 0 2-0.895 2-2v0zM20 18v-4c0-1.105-0.895-2-2-2v0h-4c-1.105 0-2 0.895-2 2v0 4c0 1.105 0.895 2 2 2v0h4c1.105 0 2-0.895 2-2v0zM20 8v-4c0-1.105-0.895-2-2-2v0h-4c-1.105 0-2 0.895-2 2v0 4c0 1.105 0.895 2 2 2v0h4c1.105 0 2-0.895 2-2v0zM18 4v4h-4v-4zM28 4v4h-4v-4zM8 14v4h-4v-4zM18 14v4h-4v-4zM28 14h-4v4h4zM8 24v4h-4v-4zM18 24v4h-4v-4zM28 24v4h-4v-4zM24 2c-1.105 0-2 0.895-2 2v0 4c0 1.105 0.895 2 2 2v0h4c1.105 0 2-0.895 2-2v0-4c0-1.105-0.895-2-2-2v0zM22 14c0-1.105 0.895-2 2-2v0h4c1.105 0 2 0.895 2 2v0 4c0 1.105-0.895 2-2 2v0h-4c-1.105 0-2-0.895-2-2v0zM24 22c-1.105 0-2 0.895-2 2v0 4c0 1.105 0.895 2 2 2v0h4c1.105 0 2-0.895 2-2v0-4c0-1.105-0.895-2-2-2v0z"></path>
        </symbol>
        <symbol id="icon-fullyIntegrated" viewBox="0 0 32 32">
            <path d="M2 5c0-1.657 1.343-3 3-3v0h6c1.657 0 3 1.343 3 3v0 6c0 1.657-1.343 3-3 3v0h-6c-1.657 0-3-1.343-3-3v0zM5 4c-0.552 0-1 0.448-1 1v0 6c0 0.552 0.448 1 1 1v0h6c0.552 0 1-0.448 1-1v0-6c0-0.552-0.448-1-1-1v0zM18 5c0-1.657 1.343-3 3-3v0h6c1.657 0 3 1.343 3 3v0 6c0 1.657-1.343 3-3 3v0h-6c-1.657 0-3-1.343-3-3v0zM21 4c-0.552 0-1 0.448-1 1v0 6c0 0.552 0.448 1 1 1v0h6c0.552 0 1-0.448 1-1v0-6c0-0.552-0.448-1-1-1v0zM2 21c0-1.657 1.343-3 3-3v0h6c1.657 0 3 1.343 3 3v0 6c0 1.657-1.343 3-3 3v0h-6c-1.657 0-3-1.343-3-3v0zM5 20c-0.552 0-1 0.448-1 1v0 6c0 0.552 0.448 1 1 1v0h6c0.552 0 1-0.448 1-1v0-6c0-0.552-0.448-1-1-1v0zM18 21c0-1.657 1.343-3 3-3v0h6c1.657 0 3 1.343 3 3v0 6c0 1.657-1.343 3-3 3v0h-6c-1.657 0-3-1.343-3-3v0zM21 20c-0.552 0-1 0.448-1 1v0 6c0 0.552 0.448 1 1 1v0h6c0.552 0 1-0.448 1-1v0-6c0-0.552-0.448-1-1-1v0z"></path>
        </symbol>
        <symbol id="icon-panelTruck" viewBox="0 0 32 32">
            <path d="M12 2h-10v28h10zM30 2h-10v10h10zM30 20v10h-10v-10zM0 2c0-1.105 0.895-2 2-2v0h10c1.105 0 2 0.895 2 2v0 28c0 1.105-0.895 2-2 2v0h-10c-1.105 0-2-0.895-2-2v0zM18 2c0-1.105 0.895-2 2-2v0h10c1.105 0 2 0.895 2 2v0 10c0 1.105-0.895 2-2 2v0h-10c-1.105 0-2-0.895-2-2v0zM20 18c-1.105 0-2 0.895-2 2v0 10c0 1.105 0.895 2 2 2v0h10c1.105 0 2-0.895 2-2v0-10c0-1.105-0.895-2-2-2v0z"></path>
        </symbol>
        <symbol id="icon-kitchen" viewBox="0 0 32 32">
            <path d="M1 12c-0.552 0-1 0.448-1 1 0 0.077 0.009 0.151 0.025 0.223l-0.001-0.007 3.304 14.868c0.514 2.257 2.503 3.915 4.88 3.916h11.584c2.377-0.001 4.366-1.659 4.874-3.882l0.006-0.034 0.262-1.18c0.332 0.065 0.713 0.102 1.103 0.102 3.314 0 6-2.686 6-6 0-2.782-1.893-5.121-4.461-5.801l-0.042-0.009 0.442-1.98c0.015-0.065 0.024-0.139 0.024-0.216 0-0.552-0.448-1-1-1h-0zM26 25q-0.318 0-0.632-0.050l1.734-7.796c1.682 0.499 2.889 2.030 2.889 3.844 0 2.206-1.785 3.996-3.99 4.002h-0.001zM5.28 27.65l-3.034-13.65h23.508l-3.034 13.65c-0.308 1.354-1.502 2.35-2.928 2.35h-11.584c-1.426-0-2.62-0.996-2.924-2.33l-0.004-0.020z"></path>
            <path d="M8.8 1.6l-0.006 0.008-0.028 0.038q-0.219 0.3-0.408 0.62c-0.097 0.151-0.191 0.326-0.272 0.508l-0.010 0.026c-0.052 0.12-0.068 0.184-0.074 0.206v0.008c0.025 0.187 0.089 0.355 0.185 0.501l-0.003-0.005c0.15 0.266 0.356 0.544 0.616 0.89l0.020 0.024c0.236 0.316 0.52 0.694 0.74 1.086 0.224 0.4 0.44 0.91 0.44 1.49 0 0.376-0.13 0.736-0.238 0.988-0.132 0.303-0.267 0.558-0.419 0.801l0.015-0.025c-0.181 0.301-0.348 0.551-0.525 0.792l0.019-0.028-0.036 0.050-0.010 0.016-0.004 0.004c-0.184 0.245-0.474 0.401-0.801 0.401-0.552 0-1-0.448-1-1 0-0.226 0.075-0.434 0.201-0.602l-0.002 0.003 0.006-0.008 0.028-0.038q0.219-0.3 0.408-0.62c0.097-0.151 0.191-0.326 0.272-0.508l0.010-0.026c0.052-0.12 0.068-0.184 0.074-0.206-0.023-0.189-0.087-0.36-0.183-0.509l0.003 0.005c-0.204-0.339-0.408-0.63-0.63-0.905l0.012 0.015-0.020-0.024c-0.249-0.316-0.494-0.67-0.715-1.040l-0.025-0.046c-0.261-0.425-0.423-0.937-0.44-1.485l-0-0.005c0-0.376 0.13-0.736 0.238-0.988 0.118-0.276 0.268-0.548 0.404-0.776q0.239-0.392 0.506-0.764l0.050-0.070c0.184-0.245 0.474-0.401 0.801-0.401 0.552 0 1 0.448 1 1 0 0.226-0.075 0.434-0.201 0.602l0.002-0.003zM14.8 1.6l-0.006 0.008-0.028 0.038q-0.219 0.3-0.408 0.62-0.161 0.257-0.282 0.534c-0.052 0.12-0.068 0.184-0.074 0.206v0.008c0.025 0.187 0.089 0.355 0.185 0.501l-0.003-0.005c0.15 0.266 0.356 0.544 0.616 0.89l0.020 0.024c0.236 0.316 0.52 0.694 0.74 1.086 0.224 0.4 0.44 0.91 0.44 1.49 0 0.376-0.13 0.736-0.238 0.988q-0.174 0.403-0.404 0.776c-0.181 0.301-0.348 0.551-0.525 0.792l0.019-0.028-0.036 0.050-0.010 0.016-0.004 0.004c-0.184 0.245-0.474 0.401-0.801 0.401-0.552 0-1-0.448-1-1 0-0.226 0.075-0.434 0.201-0.602l-0.002 0.003 0.006-0.008 0.028-0.038q0.219-0.3 0.408-0.62 0.161-0.256 0.282-0.534c0.052-0.12 0.068-0.184 0.074-0.206-0.023-0.189-0.087-0.36-0.183-0.509l0.003 0.005c-0.204-0.339-0.408-0.63-0.63-0.905l0.012 0.015-0.020-0.024q-0.405-0.518-0.74-1.086c-0.261-0.425-0.423-0.937-0.44-1.485l-0-0.005c0-0.376 0.13-0.736 0.238-0.988 0.118-0.276 0.268-0.548 0.404-0.776q0.239-0.392 0.506-0.764l0.050-0.070c0.184-0.245 0.474-0.401 0.801-0.401 0.552 0 1 0.448 1 1 0 0.226-0.075 0.434-0.201 0.602l0.002-0.003zM20.8 1.6l-0.006 0.008-0.028 0.038q-0.218 0.3-0.408 0.62-0.161 0.257-0.282 0.534c-0.052 0.12-0.068 0.184-0.074 0.206v0.008c0.025 0.187 0.089 0.355 0.185 0.501l-0.003-0.005c0.15 0.266 0.356 0.544 0.616 0.89l0.020 0.024c0.236 0.316 0.52 0.694 0.74 1.086 0.224 0.4 0.44 0.91 0.44 1.49 0 0.376-0.13 0.736-0.238 0.988q-0.174 0.403-0.404 0.776-0.234 0.393-0.504 0.764l-0.038 0.050-0.010 0.016-0.004 0.004c-0.184 0.245-0.474 0.401-0.801 0.401-0.552 0-1-0.448-1-1 0-0.226 0.075-0.434 0.201-0.602l-0.002 0.003 0.006-0.008 0.028-0.038q0.218-0.3 0.408-0.62 0.161-0.256 0.282-0.534c0.052-0.12 0.068-0.184 0.074-0.206-0.023-0.189-0.087-0.36-0.183-0.509l0.003 0.005c-0.204-0.339-0.408-0.63-0.63-0.905l0.012 0.015-0.020-0.024q-0.405-0.518-0.74-1.086c-0.261-0.425-0.423-0.937-0.44-1.485l-0-0.005c0-0.376 0.13-0.736 0.238-0.988 0.118-0.276 0.268-0.548 0.404-0.776q0.239-0.392 0.506-0.764l0.050-0.070c0.184-0.245 0.474-0.401 0.801-0.401 0.552 0 1 0.448 1 1 0 0.226-0.075 0.434-0.201 0.602l0.002-0.003z"></path>
        </symbol>
        <symbol id="icon-transmission" viewBox="0 0 32 32">
            <path d="M12 7c0-1.657 1.343-3 3-3v0h2c1.657 0 3 1.343 3 3v0 2c0 1.657-1.343 3-3 3v0 2h11c0.552 0 1 0.448 1 1v0 2c0 0.552-0.448 1-1 1s-1-0.448-1-1v0-1h-10v1c0 0.552-0.448 1-1 1s-1-0.448-1-1v0-1h-10v1c0 0.552-0.448 1-1 1s-1-0.448-1-1v0-2c0-0.552 0.448-1 1-1v0h11v-2c-1.657 0-3-1.343-3-3v0zM17 10c0.552 0 1-0.448 1-1v0-2c0-0.552-0.448-1-1-1v0h-2c-0.552 0-1 0.448-1 1v0 2c0 0.552 0.448 1 1 1v0zM0 23c0-1.657 1.343-3 3-3v0h2c1.657 0 3 1.343 3 3v0 2c0 1.657-1.343 3-3 3v0h-2c-1.657 0-3-1.343-3-3v0zM3 22c-0.552 0-1 0.448-1 1v0 2c0 0.552 0.448 1 1 1v0h2c0.552 0 1-0.448 1-1v0-2c0-0.552-0.448-1-1-1v0zM12 23c0-1.657 1.343-3 3-3v0h2c1.657 0 3 1.343 3 3v0 2c0 1.657-1.343 3-3 3v0h-2c-1.657 0-3-1.343-3-3v0zM15 22c-0.552 0-1 0.448-1 1v0 2c0 0.552 0.448 1 1 1v0h2c0.552 0 1-0.448 1-1v0-2c0-0.552-0.448-1-1-1v0zM24 23c0-1.657 1.343-3 3-3v0h2c1.657 0 3 1.343 3 3v0 2c0 1.657-1.343 3-3 3v0h-2c-1.657 0-3-1.343-3-3v0zM27 22c-0.552 0-1 0.448-1 1v0 2c0 0.552 0.448 1 1 1v0h2c0.552 0 1-0.448 1-1v0-2c0-0.552-0.448-1-1-1v0z"></path>
        </symbol>
        <symbol id="icon-ac" viewBox="0 0 32 32">
            <path d="M25 4c-2.761 0-5 2.239-5 5v0c0 0.552-0.448 1-1 1s-1-0.448-1-1v0c0-3.866 3.134-7 7-7s7 3.134 7 7c0 3.866-3.134 7-7 7v0h-24c-0.552 0-1-0.448-1-1s0.448-1 1-1v0h24c2.761 0 5-2.239 5-5s-2.239-5-5-5v0zM11 6c-1.105 0-2 0.895-2 2v0c0 0.552-0.448 1-1 1s-1-0.448-1-1v0c0-2.209 1.791-4 4-4s4 1.791 4 4c0 2.209-1.791 4-4 4v0h-10c-0.552 0-1-0.448-1-1s0.448-1 1-1v0h10c1.105 0 2-0.895 2-2s-0.895-2-2-2v0zM0 19c0-0.552 0.448-1 1-1v0h20.084c3.314 0 6 2.686 6 6s-2.686 6-6 6c-3.314 0-6-2.686-6-6v0c0-0.552 0.448-1 1-1s1 0.448 1 1v0c0 2.209 1.791 4 4 4s4-1.791 4-4c0-2.209-1.791-4-4-4v0h-20.084c-0.552 0-1-0.448-1-1v0z"></path>
        </symbol>
        <symbol id="icon-logo" viewBox="0 0 272 32">
            <path fill="#475467" style="fill: var(--color4, #475467)" d="M270.786 14.376h-7.216c-0.032-0.443-0.205-0.841-0.472-1.155l0.002 0.003c-0.282-0.326-0.64-0.58-1.046-0.734l-0.018-0.006c-0.403-0.17-0.872-0.268-1.364-0.268-0.020 0-0.041 0-0.061 0.001l0.003-0q-1.008 0-1.732 0.37-0.726 0.368-0.71 1.050-0.014 0.482 0.412 0.896 0.44 0.41 1.69 0.64l4.432 0.794q3.35 0.612 4.986 2.060 1.646 1.434 1.662 3.85-0.016 2.326-1.392 4.048-1.366 1.704-3.736 2.64-2.36 0.924-5.384 0.924-5 0-7.826-2.044-2.814-2.046-3.14-5.4h7.784q0.158 1.040 1.022 1.606 0.88 0.554 2.216 0.554 1.080 0 1.776-0.368 0.712-0.37 0.724-1.052-0.014-0.624-0.624-0.994-0.598-0.37-1.876-0.596l-3.862-0.682q-3.34-0.584-5-2.216-1.662-1.636-1.648-4.206-0.014-2.272 1.192-3.848 1.22-1.59 3.48-2.416 2.274-0.838 5.384-0.838 4.73 0 7.458 1.96 2.74 1.96 2.884 5.428zM232.83 23.92l0.056-9.318h1.024l5.284-7.33h8.806l-8.864 11.42h-2.216zM225.784 29.090v-29.090h7.842v29.092zM239.25 29.090l-5-8.636 5.114-5.568 8.864 14.206zM211.238 29.488q-3.552 0-6.080-1.406c-1.656-0.926-2.979-2.272-3.853-3.896l-0.025-0.052q-1.35-2.544-1.348-5.896 0-3.35 1.348-5.88c0.895-1.678 2.22-3.026 3.829-3.923l0.049-0.025q2.528-1.42 6.080-1.42 3.21 0 5.554 1.164 2.358 1.15 3.65 3.266 1.294 2.102 1.308 4.944h-7.274q-0.156-1.72-0.994-2.614-0.824-0.91-2.13-0.91-1.024 0-1.79 0.598-0.768 0.582-1.194 1.776-0.426 1.178-0.426 2.968 0 1.792 0.426 2.982 0.426 1.18 1.194 1.776 0.766 0.582 1.79 0.582 0.866 0 1.534-0.396 0.666-0.414 1.080-1.194 0.426-0.794 0.51-1.932h7.274q-0.044 2.884-1.322 5.028-1.28 2.132-3.622 3.296-2.33 1.164-5.568 1.164zM188.098 19.546v-12.274h7.84v21.82h-7.442v-4.148h-0.228c-0.452 1.367-1.325 2.493-2.463 3.252l-0.023 0.014q-1.776 1.164-4.22 1.164-2.288 0-4.004-1.050c-1.136-0.708-2.041-1.691-2.637-2.857l-0.019-0.041q-0.938-1.846-0.952-4.232v-13.92h7.84v12.272q0.014 1.62 0.824 2.542 0.824 0.924 2.3 0.924 0.984 0 1.692-0.412 0.726-0.426 1.108-1.194 0.4-0.78 0.384-1.86zM155.806 29.092v-21.82h7.614v4.148h0.226q0.6-2.3 1.89-3.366c0.802-0.664 1.841-1.067 2.974-1.067 0.028 0 0.056 0 0.084 0.001l-0.004-0q0.51 0 1.008 0.086 0.51 0.074 0.98 0.212v6.694c-0.415-0.139-0.902-0.245-1.404-0.297l-0.030-0.003c-0.43-0.055-0.937-0.091-1.45-0.1l-0.012-0q-1.152 0-2.074 0.528-0.91 0.51-1.436 1.448-0.526 0.924-0.526 2.174v11.364zM128.9 6.364v-6.364h25.286v6.364h-8.75v22.728h-7.784v-22.728z"></path>
            <path fill="#101828" style="fill: var(--color5, #101828)" d="M125.016 0v29.092h-7.84v-29.092zM102.494 29.488q-3.496 0-6.024-1.334c-1.657-0.889-2.983-2.211-3.854-3.815l-0.024-0.049q-1.35-2.528-1.348-6.052 0-3.38 1.362-5.908c0.896-1.666 2.209-3.006 3.802-3.911l0.048-0.025q2.488-1.406 5.866-1.406 2.472 0 4.476 0.768c1.34 0.511 2.482 1.269 3.42 2.228l0.002 0.002q1.42 1.448 2.188 3.522t0.768 4.674v1.818h-19.49v-4.32h12.274c0-0.004 0-0.008 0-0.012 0-0.608-0.181-1.173-0.491-1.645l0.007 0.011c-0.304-0.48-0.722-0.862-1.218-1.114l-0.018-0.008c-0.485-0.26-1.062-0.413-1.674-0.413-0.025 0-0.051 0-0.076 0.001l0.004-0q-0.954 0-1.748 0.412c-0.524 0.259-0.955 0.636-1.273 1.097l-0.007 0.011q-0.466 0.712-0.496 1.66v4.66q0 1.050 0.44 1.876t1.266 1.292q0.822 0.47 1.988 0.47 0.81 0 1.478-0.228 0.68-0.228 1.164-0.654 0.482-0.44 0.71-1.050h7.16c-0.236 1.518-0.857 2.86-1.76 3.963l0.012-0.015q-1.38 1.662-3.65 2.586-2.26 0.908-5.284 0.908zM89.672 7.272l-7.328 21.82h-9.092l-7.33-21.82h8.24l3.522 14.432h0.228l3.522-14.432zM50.112 29.432q-2.088 0-3.694-0.682c-1.042-0.449-1.894-1.173-2.487-2.081l-0.013-0.021q-0.908-1.406-0.908-3.58 0-1.792 0.61-3.054c0.401-0.844 0.979-1.545 1.692-2.078l0.014-0.010q1.092-0.81 2.54-1.236c0.922-0.275 1.998-0.471 3.106-0.551l0.050-0.003q1.83-0.14 2.94-0.34 1.122-0.212 1.62-0.582c0.302-0.221 0.497-0.574 0.497-0.972 0-0.013-0-0.027-0.001-0.040l0 0.002v-0.056q0-0.852-0.654-1.308-0.654-0.454-1.676-0.454-1.122 0-1.832 0.498-0.696 0.482-0.838 1.49h-7.216c0.095-1.378 0.554-2.633 1.28-3.689l-0.016 0.025q1.136-1.688 3.31-2.7 2.172-1.020 5.426-1.020 2.344 0 4.204 0.552 1.86 0.54 3.168 1.52 1.308 0.966 1.988 2.274 0.696 1.292 0.696 2.812v14.944h-7.328v-3.072h-0.172c-0.406 0.779-0.939 1.436-1.58 1.968l-0.010 0.008q-0.924 0.75-2.116 1.094c-0.752 0.216-1.615 0.34-2.507 0.34-0.033 0-0.065-0-0.098-0l0.005 0zM52.668 24.486q0.896 0 1.676-0.368 0.796-0.37 1.294-1.066 0.496-0.696 0.496-1.69v-1.82c-0.15 0.065-0.371 0.147-0.595 0.222l-0.071 0.020c-0.415 0.14-0.94 0.277-1.475 0.384l-0.087 0.014c-0.172 0.040-0.476 0.095-0.783 0.143l-0.113 0.015c-0.556 0.072-1.060 0.237-1.516 0.48l0.024-0.012q-0.568 0.312-0.852 0.78c-0.17 0.288-0.27 0.634-0.27 1.004 0 0.007 0 0.014 0 0.021v-0.001q0 0.91 0.64 1.392t1.632 0.482zM26.904 29.092v-21.82h7.614v4.148h0.228q0.594-2.3 1.888-3.366c0.802-0.664 1.841-1.067 2.974-1.067 0.028 0 0.056 0 0.084 0.001l-0.004-0q0.512 0 1.010 0.086 0.51 0.074 0.98 0.212v6.694c-0.416-0.139-0.903-0.245-1.406-0.297l-0.030-0.003c-0.43-0.055-0.937-0.091-1.45-0.1l-0.012-0q-1.152 0-2.074 0.528-0.908 0.51-1.436 1.448-0.524 0.924-0.524 2.174v11.364zM0 6.364v-6.364h25.284v6.364h-8.75v22.728h-7.784v-22.728z"></path>
        </symbol>
    </defs>
</svg>